<svg width="18" height="20" viewBox="0 0 18 20" fill="none" xmlns="http://www.w3.org/2000/svg">
<path fill-rule="evenodd" clip-rule="evenodd" d="M12.5492 8.53606C12.5492 9.51273 12.1508 10.4494 11.4415 11.14C10.7322 11.8306 9.77019 12.2186 8.76711 12.2186C7.76403 12.2186 6.80203 11.8306 6.09274 11.14C5.38346 10.4494 4.98499 9.51273 4.98499 8.53606C4.98499 7.55939 5.38346 6.62272 6.09274 5.93211C6.80203 5.2415 7.76403 4.85352 8.76711 4.85352C9.77019 4.85352 10.7322 5.2415 11.4415 5.93211C12.1508 6.62272 12.5492 7.55939 12.5492 8.53606ZM10.6582 8.53606C10.6582 9.0244 10.4589 9.49273 10.1043 9.83804C9.74965 10.1833 9.26865 10.3773 8.76711 10.3773C8.26557 10.3773 7.78457 10.1833 7.42993 9.83804C7.07528 9.49273 6.87605 9.0244 6.87605 8.53606C6.87605 8.04773 7.07528 7.57939 7.42993 7.23408C7.78457 6.88878 8.26557 6.69479 8.76711 6.69479C9.26865 6.69479 9.74965 6.88878 10.1043 7.23408C10.4589 7.57939 10.6582 8.04773 10.6582 8.53606Z" fill="white"/>
<path fill-rule="evenodd" clip-rule="evenodd" d="M2.64182 14.2865C1.42288 13.1565 0.575459 11.6999 0.206731 10.101C-0.161998 8.50201 -0.0354775 6.83249 0.570293 5.30355C1.17606 3.77461 2.23388 2.4549 3.60997 1.51132C4.98605 0.567738 6.61861 0.0426622 8.30119 0.00249071C9.98376 -0.0376808 11.6408 0.408857 13.0627 1.28563C14.4847 2.16241 15.6076 3.43005 16.2896 4.92825C16.9716 6.42645 17.182 8.08792 16.8942 9.70255C16.6064 11.3172 15.8334 12.8125 14.6728 13.9993L8.8048 20L2.64182 14.2865V14.2865ZM13.3036 12.7297L8.73955 17.3974L3.94571 12.9534C2.99769 12.0745 2.33862 10.9417 2.05185 9.69805C1.76508 8.45444 1.86349 7.15597 2.33463 5.96682C2.80577 4.77767 3.62848 3.75125 4.69873 3.01735C5.76898 2.28345 7.0387 1.87504 8.34734 1.84375C9.65598 1.81247 10.9448 2.15972 12.0507 2.84159C13.1567 3.52346 14.0301 4.50933 14.5606 5.67454C15.0911 6.83974 15.2549 8.13195 15.0311 9.38776C14.8074 10.6436 14.2062 11.8066 13.3036 12.7297V12.7297Z" fill="white"/>
</svg>
