<svg width="136" height="30" viewBox="0 0 136 30" fill="none" xmlns="http://www.w3.org/2000/svg">
<path d="M134.2 12.8636L132.397 9.68123V12.65C132.528 15.3055 132 15.8548 131.15 16.55C131.518 13.8195 131.457 9.51679 128.51 5.2C126.667 2.50203 123.574 0.896163 119.876 0.337836L117.643 0L119.255 1.58309C121.18 3.47196 122.158 5.4712 122.164 7.5269C122.167 8.71282 121.843 9.77337 121.441 10.6324C121.345 9.13251 120.809 7.44046 119.089 6.51064L117.926 5.88306L118.01 7.20045C118.2 10.2031 116.918 12.0356 115.559 13.9762C114.187 15.9354 112.77 17.9608 113.031 21.1249C113.478 26.5265 116.797 29.507 122.895 29.9835C123.036 29.995 123.183 30 123.333 30C126.458 30 131.166 27.6317 133.636 23.6668C135.072 21.3657 136.535 17.6215 134.2 12.8636ZM123.334 28.5376C123.3 28.5376 123.27 28.5347 123.237 28.534C123.334 28.5319 123.421 28.5304 123.504 28.5297C123.448 28.5311 123.389 28.5376 123.334 28.5376ZM131.7 22.55C129.706 25.749 127.608 27.1778 124.95 27.5C127.832 26.6006 128.788 16.4042 122.895 14.65C124.449 17.348 121.494 18.9354 119.439 20.1592C117.384 21.3829 116.162 23.4682 117 26.1C117.031 26.1964 116.809 25.8622 116.85 25.95C115.559 24.55 115.513 23.5247 115.3 20.95C115.081 18.3125 116.003 17.226 117.281 15.4C118.422 13.7708 119.165 12.7726 119.439 10.2C120.465 11.9146 119.743 13.1812 119.734 13.214L118.996 15.8548L121.2 14.2C121.309 14.0925 124.701 11.8664 124.7 8.15C124.699 6.32396 123.01 3.95247 121.791 2.27577C124.028 2.99054 125.165 4.89397 126.4 6.7C129.941 11.8794 128.811 19.2233 128.793 19.3047L128.51 20.5606L129.734 20.1592C129.769 20.1477 132.457 19.4227 133.55 16.45C134.139 19.3053 132.652 21.0218 131.7 22.55Z" fill="#FF4D00"/>
<path d="M11.28 20.92C10.9467 21.08 10.6 21.24 10.24 21.4C9.89333 21.5467 9.52 21.68 9.12 21.8C8.72 21.9067 8.28 21.9933 7.8 22.06C7.33333 22.1267 6.82 22.16 6.26 22.16C4.47333 22.16 3.09333 21.76 2.12 20.96C1.16 20.16 0.68 18.8267 0.68 16.96C0.68 15.88 0.846667 14.8667 1.18 13.92C1.51333 12.96 2.00667 12.1267 2.66 11.42C3.31333 10.7 4.12 10.1333 5.08 9.72C6.04 9.30667 7.14 9.1 8.38 9.1C8.96667 9.1 9.5 9.14 9.98 9.22C10.4733 9.3 10.9133 9.40667 11.3 9.54C11.7 9.66 12.0533 9.79333 12.36 9.94C12.68 10.0867 12.9667 10.2267 13.22 10.36L12.5 14.08H8.9C8.91333 13.9467 8.92667 13.7733 8.94 13.56C8.96667 13.3467 8.98667 13.1333 9 12.92C9.01333 12.6933 9.02667 12.4733 9.04 12.26C9.05333 12.0467 9.06 11.8667 9.06 11.72C9.06 11.6133 9.05333 11.4933 9.04 11.36C9.02667 11.2133 8.99333 11.0733 8.94 10.94C8.88667 10.8067 8.8 10.7 8.68 10.62C8.57333 10.5267 8.42667 10.48 8.24 10.48C7.89333 10.48 7.57333 10.6267 7.28 10.92C7 11.2 6.74667 11.58 6.52 12.06C6.29333 12.5267 6.09333 13.06 5.92 13.66C5.74667 14.26 5.6 14.8733 5.48 15.5C5.37333 16.1133 5.28667 16.72 5.22 17.32C5.16667 17.92 5.14 18.4467 5.14 18.9C5.14 19.0333 5.14667 19.2 5.16 19.4C5.17333 19.6 5.21333 19.7933 5.28 19.98C5.34667 20.1667 5.44667 20.3267 5.58 20.46C5.72667 20.5933 5.92 20.66 6.16 20.66C6.57333 20.66 6.97333 20.4067 7.36 19.9C7.74667 19.38 8.08667 18.46 8.38 17.14H12.08L11.28 20.92ZM14.3934 13.4H17.6534L17.9534 14.9H18.0934C18.4001 14.42 18.7934 14.0133 19.2734 13.68C19.7534 13.3467 20.3868 13.18 21.1734 13.18C21.2268 13.18 21.3068 13.1867 21.4134 13.2C21.5334 13.2 21.6601 13.22 21.7934 13.26C21.9401 13.2867 22.0868 13.3333 22.2334 13.4C22.3934 13.4533 22.5468 13.5333 22.6934 13.64L21.8134 17.76H19.6334C19.6068 16.9333 19.5334 16.36 19.4134 16.04C19.2934 15.7067 19.1001 15.54 18.8334 15.54C18.7001 15.54 18.5534 15.5733 18.3934 15.64C18.2468 15.6933 18.0934 15.82 17.9334 16.02L16.6534 22H12.5734L14.3934 13.4ZM26.3014 22H22.2414L24.0614 13.4H28.1614L26.3014 22ZM28.6814 10.78C28.6814 11.0867 28.6147 11.3533 28.4814 11.58C28.3614 11.8067 28.1947 12 27.9814 12.16C27.7814 12.32 27.5481 12.44 27.2814 12.52C27.0147 12.6 26.7414 12.64 26.4614 12.64C25.9281 12.64 25.4814 12.5133 25.1214 12.26C24.7614 12.0067 24.5814 11.6067 24.5814 11.06C24.5814 10.7667 24.6414 10.5067 24.7614 10.28C24.8814 10.04 25.0414 9.84667 25.2414 9.7C25.4547 9.54 25.6947 9.42 25.9614 9.34C26.2414 9.26 26.5281 9.22 26.8214 9.22C27.3414 9.22 27.7814 9.34667 28.1414 9.6C28.5014 9.85333 28.6814 10.2467 28.6814 10.78ZM33.6608 14.68C33.9408 14.4133 34.2541 14.1667 34.6008 13.94C34.9074 13.7533 35.2741 13.58 35.7008 13.42C36.1274 13.26 36.6074 13.18 37.1408 13.18C37.7808 13.18 38.2541 13.3267 38.5608 13.62C38.8808 13.9133 39.0608 14.2733 39.1008 14.7H39.2208C39.5274 14.42 39.8608 14.1667 40.2208 13.94C40.5274 13.7533 40.8874 13.58 41.3008 13.42C41.7141 13.26 42.1541 13.18 42.6208 13.18C43.3141 13.18 43.8741 13.3733 44.3008 13.76C44.7408 14.1333 44.9608 14.62 44.9608 15.22C44.9608 15.5267 44.9074 15.9333 44.8008 16.44C44.6941 16.9467 44.5741 17.5 44.4408 18.1L43.6008 22H39.6608L40.7408 16.78C40.7808 16.58 40.8208 16.3867 40.8608 16.2C40.9008 16.0133 40.9208 15.86 40.9208 15.74C40.9208 15.5533 40.8674 15.4 40.7608 15.28C40.6541 15.1467 40.5008 15.08 40.3008 15.08C40.0474 15.08 39.8074 15.1733 39.5808 15.36C39.3674 15.5333 39.2008 15.68 39.0808 15.8L37.7808 22H34.0408L35.1408 16.78C35.1674 16.6067 35.2008 16.4333 35.2408 16.26C35.2808 16.0733 35.3008 15.9067 35.3008 15.76C35.3008 15.56 35.2474 15.4 35.1408 15.28C35.0474 15.1467 34.9008 15.08 34.7008 15.08C34.4608 15.08 34.2274 15.1667 34.0008 15.34C33.7874 15.5133 33.6208 15.66 33.5008 15.78L32.1808 22H28.1008L29.9208 13.4H33.1808L33.5408 14.68H33.6608ZM49.8873 17.98C49.834 18.2733 49.794 18.5533 49.7673 18.82C49.754 19.0867 49.7473 19.3267 49.7473 19.54C49.7473 19.66 49.754 19.7933 49.7673 19.94C49.7807 20.0867 49.8073 20.2267 49.8473 20.36C49.9007 20.48 49.9673 20.5867 50.0473 20.68C50.1407 20.76 50.2673 20.8 50.4273 20.8C50.5473 20.8 50.6807 20.76 50.8273 20.68C50.9873 20.6 51.1407 20.4867 51.2873 20.34C51.4473 20.1933 51.594 20.0133 51.7273 19.8C51.874 19.5867 51.9873 19.3467 52.0673 19.08H55.3473L54.8273 21.22C54.5607 21.3933 54.254 21.54 53.9073 21.66C53.5607 21.78 53.194 21.88 52.8073 21.96C52.4207 22.0267 52.0273 22.0733 51.6273 22.1C51.2273 22.14 50.8473 22.16 50.4873 22.16C49.8207 22.16 49.2007 22.1 48.6273 21.98C48.054 21.86 47.554 21.6533 47.1273 21.36C46.7007 21.0667 46.3607 20.68 46.1073 20.2C45.8673 19.7067 45.7473 19.1 45.7473 18.38C45.7473 17.7267 45.8473 17.0867 46.0473 16.46C46.2607 15.8333 46.6073 15.28 47.0873 14.8C47.5807 14.3067 48.234 13.9133 49.0473 13.62C49.874 13.3267 50.9007 13.18 52.1273 13.18C53.4607 13.18 54.4607 13.3867 55.1273 13.8C55.8073 14.2133 56.1473 14.86 56.1473 15.74C56.1473 16.1 56.094 16.4933 55.9873 16.92C55.8807 17.3333 55.7207 17.6867 55.5073 17.98H49.8873ZM52.5473 15.6C52.5473 15.1867 52.4807 14.9067 52.3473 14.76C52.214 14.6133 52.054 14.54 51.8673 14.54C51.654 14.54 51.454 14.6133 51.2673 14.76C51.094 14.8933 50.934 15.08 50.7873 15.32C50.6407 15.5467 50.5073 15.8133 50.3873 16.12C50.2673 16.4133 50.1673 16.7267 50.0873 17.06H52.3673C52.394 16.9 52.4207 16.7333 52.4473 16.56C52.474 16.4133 52.494 16.2533 52.5073 16.08C52.534 15.9067 52.5473 15.7467 52.5473 15.6ZM57.9048 14.14C58.5848 13.8067 59.2782 13.5667 59.9848 13.42C60.7048 13.26 61.5048 13.18 62.3848 13.18C63.2382 13.18 63.9448 13.2467 64.5048 13.38C65.0648 13.5133 65.5115 13.7067 65.8448 13.96C66.1782 14.2133 66.4115 14.5133 66.5448 14.86C66.6782 15.2067 66.7448 15.6 66.7448 16.04C66.7448 16.2933 66.7248 16.5667 66.6848 16.86C66.6582 17.1533 66.6248 17.4 66.5848 17.6L65.6448 22H62.4248L62.0648 20.72H61.9448C61.5182 21.1867 61.0182 21.5467 60.4448 21.8C59.8848 22.04 59.3248 22.16 58.7648 22.16C58.4448 22.16 58.1315 22.1133 57.8248 22.02C57.5182 21.9267 57.2448 21.7867 57.0048 21.6C56.7648 21.4 56.5715 21.1533 56.4248 20.86C56.2782 20.5533 56.2048 20.1867 56.2048 19.76C56.2048 19.0667 56.3915 18.52 56.7648 18.12C57.1515 17.7067 57.6515 17.4 58.2648 17.2C58.8915 16.9867 59.5915 16.8533 60.3648 16.8C61.1515 16.7467 61.9382 16.72 62.7248 16.72C62.7515 16.5867 62.7848 16.4 62.8248 16.16C62.8648 15.9067 62.8848 15.6867 62.8848 15.5C62.8848 15.26 62.8182 15.04 62.6848 14.84C62.5648 14.6267 62.3048 14.52 61.9048 14.52C61.4382 14.52 61.0915 14.66 60.8648 14.94C60.6515 15.2067 60.5115 15.5333 60.4448 15.92H57.5248L57.9048 14.14ZM62.5048 17.66H62.1448C61.7582 17.66 61.4248 17.7133 61.1448 17.82C60.8782 17.9133 60.6582 18.04 60.4848 18.2C60.3248 18.36 60.2048 18.54 60.1248 18.74C60.0448 18.94 60.0048 19.14 60.0048 19.34C60.0048 19.66 60.0848 19.9 60.2448 20.06C60.4182 20.22 60.6182 20.3 60.8448 20.3C61.1248 20.3 61.3982 20.2 61.6648 20C61.9448 19.8 62.1182 19.5333 62.1848 19.2L62.5048 17.66ZM78.6042 20.92C78.2709 21.08 77.9242 21.24 77.5642 21.4C77.2176 21.5467 76.8442 21.68 76.4442 21.8C76.0442 21.9067 75.6042 21.9933 75.1242 22.06C74.6576 22.1267 74.1442 22.16 73.5842 22.16C71.7976 22.16 70.4176 21.76 69.4442 20.96C68.4842 20.16 68.0042 18.8267 68.0042 16.96C68.0042 15.88 68.1709 14.8667 68.5042 13.92C68.8376 12.96 69.3309 12.1267 69.9842 11.42C70.6376 10.7 71.4442 10.1333 72.4042 9.72C73.3642 9.30667 74.4642 9.1 75.7042 9.1C76.2909 9.1 76.8242 9.14 77.3042 9.22C77.7976 9.3 78.2376 9.40667 78.6242 9.54C79.0242 9.66 79.3776 9.79333 79.6842 9.94C80.0042 10.0867 80.2909 10.2267 80.5442 10.36L79.8242 14.08H76.2242C76.2376 13.9467 76.2509 13.7733 76.2642 13.56C76.2909 13.3467 76.3109 13.1333 76.3242 12.92C76.3376 12.6933 76.3509 12.4733 76.3642 12.26C76.3776 12.0467 76.3842 11.8667 76.3842 11.72C76.3842 11.6133 76.3776 11.4933 76.3642 11.36C76.3509 11.2133 76.3176 11.0733 76.2642 10.94C76.2109 10.8067 76.1242 10.7 76.0042 10.62C75.8976 10.5267 75.7509 10.48 75.5642 10.48C75.2176 10.48 74.8976 10.6267 74.6042 10.92C74.3242 11.2 74.0709 11.58 73.8442 12.06C73.6176 12.5267 73.4176 13.06 73.2442 13.66C73.0709 14.26 72.9242 14.8733 72.8042 15.5C72.6976 16.1133 72.6109 16.72 72.5442 17.32C72.4909 17.92 72.4642 18.4467 72.4642 18.9C72.4642 19.0333 72.4709 19.2 72.4842 19.4C72.4976 19.6 72.5376 19.7933 72.6042 19.98C72.6709 20.1667 72.7709 20.3267 72.9042 20.46C73.0509 20.5933 73.2442 20.66 73.4842 20.66C73.8976 20.66 74.2976 20.4067 74.6842 19.9C75.0709 19.38 75.4109 18.46 75.7042 17.14H79.4042L78.6042 20.92ZM81.5377 14.14C82.2177 13.8067 82.911 13.5667 83.6177 13.42C84.3377 13.26 85.1377 13.18 86.0177 13.18C86.871 13.18 87.5777 13.2467 88.1377 13.38C88.6977 13.5133 89.1443 13.7067 89.4777 13.96C89.811 14.2133 90.0443 14.5133 90.1777 14.86C90.311 15.2067 90.3777 15.6 90.3777 16.04C90.3777 16.2933 90.3577 16.5667 90.3177 16.86C90.291 17.1533 90.2577 17.4 90.2177 17.6L89.2777 22H86.0577L85.6977 20.72H85.5777C85.151 21.1867 84.651 21.5467 84.0777 21.8C83.5177 22.04 82.9577 22.16 82.3977 22.16C82.0777 22.16 81.7643 22.1133 81.4577 22.02C81.151 21.9267 80.8777 21.7867 80.6377 21.6C80.3977 21.4 80.2043 21.1533 80.0577 20.86C79.911 20.5533 79.8377 20.1867 79.8377 19.76C79.8377 19.0667 80.0243 18.52 80.3977 18.12C80.7843 17.7067 81.2843 17.4 81.8977 17.2C82.5243 16.9867 83.2243 16.8533 83.9977 16.8C84.7843 16.7467 85.571 16.72 86.3577 16.72C86.3843 16.5867 86.4177 16.4 86.4577 16.16C86.4977 15.9067 86.5177 15.6867 86.5177 15.5C86.5177 15.26 86.451 15.04 86.3177 14.84C86.1977 14.6267 85.9377 14.52 85.5377 14.52C85.071 14.52 84.7243 14.66 84.4977 14.94C84.2843 15.2067 84.1443 15.5333 84.0777 15.92H81.1577L81.5377 14.14ZM86.1377 17.66H85.7777C85.391 17.66 85.0577 17.7133 84.7777 17.82C84.511 17.9133 84.291 18.04 84.1177 18.2C83.9577 18.36 83.8377 18.54 83.7577 18.74C83.6777 18.94 83.6377 19.14 83.6377 19.34C83.6377 19.66 83.7177 19.9 83.8777 20.06C84.051 20.22 84.251 20.3 84.4777 20.3C84.7577 20.3 85.031 20.2 85.2977 20C85.5777 19.8 85.751 19.5333 85.8177 19.2L86.1377 17.66ZM92.7528 13.4H96.0128L96.3128 14.9H96.4528C96.7595 14.42 97.1528 14.0133 97.6328 13.68C98.1128 13.3467 98.7461 13.18 99.5328 13.18C99.5861 13.18 99.6661 13.1867 99.7728 13.2C99.8928 13.2 100.019 13.22 100.153 13.26C100.299 13.2867 100.446 13.3333 100.593 13.4C100.753 13.4533 100.906 13.5333 101.053 13.64L100.173 17.76H97.9928C97.9661 16.9333 97.8928 16.36 97.7728 16.04C97.6528 15.7067 97.4595 15.54 97.1928 15.54C97.0595 15.54 96.9128 15.5733 96.7528 15.64C96.6061 15.6933 96.4528 15.82 96.2928 16.02L95.0128 22H90.9328L92.7528 13.4ZM106.941 15.92C106.954 15.8533 106.967 15.7867 106.981 15.72C106.994 15.6533 107.001 15.58 107.001 15.5C107.001 15.26 106.954 15.04 106.861 14.84C106.781 14.6267 106.614 14.52 106.361 14.52C106.134 14.52 105.907 14.62 105.681 14.82C105.454 15.0067 105.341 15.26 105.341 15.58C105.341 15.7933 105.394 15.9667 105.501 16.1C105.621 16.22 105.774 16.32 105.961 16.4C106.147 16.48 106.354 16.5467 106.581 16.6C106.821 16.6533 107.054 16.7067 107.281 16.76C107.601 16.84 107.901 16.94 108.181 17.06C108.474 17.1667 108.734 17.3133 108.961 17.5C109.187 17.6867 109.367 17.92 109.501 18.2C109.634 18.4667 109.701 18.8 109.701 19.2C109.701 19.76 109.567 20.2333 109.301 20.62C109.047 20.9933 108.687 21.3 108.221 21.54C107.767 21.7667 107.227 21.9267 106.601 22.02C105.987 22.1133 105.327 22.16 104.621 22.16C103.541 22.16 102.647 22.08 101.941 21.92C101.234 21.76 100.741 21.6067 100.461 21.46L100.881 19.46H103.581C103.567 19.5267 103.561 19.5933 103.561 19.66C103.561 19.7133 103.561 19.7733 103.561 19.84C103.561 20.1467 103.627 20.3933 103.761 20.58C103.907 20.7533 104.154 20.84 104.501 20.84C104.887 20.84 105.161 20.7333 105.321 20.52C105.494 20.2933 105.581 20.0867 105.581 19.9C105.581 19.7133 105.507 19.5533 105.361 19.42C105.227 19.2733 105.054 19.1533 104.841 19.06C104.627 18.9533 104.387 18.8667 104.121 18.8C103.867 18.72 103.621 18.6467 103.381 18.58C103.207 18.54 103.007 18.4733 102.781 18.38C102.567 18.2867 102.361 18.1533 102.161 17.98C101.961 17.8067 101.794 17.5867 101.661 17.32C101.527 17.04 101.461 16.6933 101.461 16.28C101.461 15.6933 101.601 15.2067 101.881 14.82C102.174 14.42 102.547 14.1 103.001 13.86C103.467 13.62 103.987 13.4467 104.561 13.34C105.147 13.2333 105.734 13.18 106.321 13.18C107.054 13.18 107.747 13.2467 108.401 13.38C109.054 13.5133 109.587 13.6867 110.001 13.9L109.541 15.92H106.941Z" fill="black"/>
</svg>
