<svg width="84" height="84" viewBox="0 0 84 84" fill="none" xmlns="http://www.w3.org/2000/svg">
<path d="M56 14.875C56 19.215 52.465 22.75 48.125 22.75H35.875C33.705 22.75 31.745 21.875 30.31 20.44C28.875 19.005 28 17.045 28 14.875C28 10.535 31.535 7 35.875 7H48.125C50.295 7 52.255 7.875 53.69 9.31C55.125 10.745 56 12.705 56 14.875Z" fill="#292D32"/>
<path d="M65.905 17.605C65.1 16.94 64.19 16.415 63.21 16.03C62.195 15.645 61.18 16.45 60.97 17.5C59.78 23.485 54.495 28 48.125 28H35.875C32.375 28 29.085 26.635 26.6 24.15C24.78 22.33 23.52 20.02 23.03 17.535C22.82 16.485 21.77 15.645 20.755 16.065C16.695 17.71 14 21.42 14 28.875V63C14 73.5 20.265 77 28 77H56C63.735 77 70 73.5 70 63V28.875C70 23.17 68.425 19.67 65.905 17.605ZM28 42.875H42C43.435 42.875 44.625 44.065 44.625 45.5C44.625 46.935 43.435 48.125 42 48.125H28C26.565 48.125 25.375 46.935 25.375 45.5C25.375 44.065 26.565 42.875 28 42.875ZM56 62.125H28C26.565 62.125 25.375 60.935 25.375 59.5C25.375 58.065 26.565 56.875 28 56.875H56C57.435 56.875 58.625 58.065 58.625 59.5C58.625 60.935 57.435 62.125 56 62.125Z" fill="#292D32"/>
</svg>
